{
  "accessors": [
    {
      "name": "Switch_#0=IfcEntities not in spatial structure_#50=IfcBuildingElementProxy group_#1=IfcUnKnow_#2=IfcUnKnow_Geometry_0-Mesh_positions",
      "componentType": 5126,
      "count": 15324,
      "min": [
        501103008,
        308963008,
        11251
      ],
      "max": [
        501246016,
        311180000,
        28730.099609375
      ],
      "type": "VEC3",
      "bufferView": 0,
      "byteOffset": 0
    },
    {
      "name": "Switch_#0=IfcEntities not in spatial structure_#50=IfcBuildingElementProxy group_#1=IfcUnKnow_#2=IfcUnKnow_Geometry_0-Mesh_normals",
      "componentType": 5126,
      "count": 15324,
      "min": [
        -0.9999989867210388,
        -0.9987429976463318,
        -0.9999920129776001
      ],
      "max": [
        0.9998310208320618,
        0.9996899962425232,
        0.9999979734420776
      ],
      "type": "VEC3",
      "bufferView": 0,
      "byteOffset": 584640
    },
    {
      "name": "Switch_#0=IfcEntities not in spatial structure_#50=IfcBuildingElementProxy group_#1=IfcUnKnow_#2=IfcUnKnow_Geometry_0-Mesh_0_indices",
      "componentType": 5123,
      "count": 15324,
      "min": [
        0
      ],
      "max": [
        15323
      ],
      "type": "SCALAR",
      "bufferView": 1,
      "byteOffset": 0
    },
    {
      "name": "Switch_#0=IfcEntities not in spatial structure_#51=IfcBuildingElementProxy group_#3=IfcUnKnow_#4=IfcUnKnow_Geometry_0-Mesh_positions",
      "componentType": 5126,
      "count": 33396,
      "min": [
        501120000,
        308960000,
        11249.7998046875
      ],
      "max": [
        501262016,
        311180000,
        30358.599609375
      ],
      "type": "VEC3",
      "bufferView": 0,
      "byteOffset": 183888
    },
    {
      "name": "Switch_#0=IfcEntities not in spatial structure_#51=IfcBuildingElementProxy group_#3=IfcUnKnow_#4=IfcUnKnow_Geometry_0-Mesh_normals",
      "componentType": 5126,
      "count": 33396,
      "min": [
        -0.9999709725379944,
        -0.9998649954795837,
        -0.9999939799308777
      ],
      "max": [
        0.9997419714927673,
        0.999343991279602,
        1
      ],
      "type": "VEC3",
      "bufferView": 0,
      "byteOffset": 768528
    },
    {
      "name": "Switch_#0=IfcEntities not in spatial structure_#51=IfcBuildingElementProxy group_#3=IfcUnKnow_#4=IfcUnKnow_Geometry_0-Mesh_0_indices",
      "componentType": 5123,
      "count": 33396,
      "min": [
        0
      ],
      "max": [
        33395
      ],
      "type": "SCALAR",
      "bufferView": 1,
      "byteOffset": 30648
    }
  ],
  "asset": {
    "generator": "obj2gltf",
    "version": "2.0"
  },
  "buffers": [
    {
      "name": "suidao_mm",
      "byteLength": 1266720,
      "uri": "data:application/octet-stream;base64,"
    }
  ],
  "bufferViews": [
    {
      "name": "bufferView_0",
      "buffer": 0,
      "byteLength": 1169280,
      "byteOffset": 0,
      "byteStride": 12,
      "target": 34962
    },
    {
      "name": "bufferView_1",
      "buffer": 0,
      "byteLength": 97440,
      "byteOffset": 1169280,
      "target": 34963
    }
  ],
  "materials": [
    {
      "name": "default",
      "pbrMetallicRoughness": {
        "baseColorFactor": [
          0.5,
          0.5,
          0.5,
          1
        ],
        "metallicFactor": 0,
        "roughnessFactor": 1
      },
      "emissiveFactor": [
        0,
        0,
        0
      ],
      "alphaMode": "OPAQUE",
      "doubleSided": false
    }
  ],
  "meshes": [
    {
      "name": "Switch_#0=IfcEntities not in spatial structure_#50=IfcBuildingElementProxy group_#1=IfcUnKnow_#2=IfcUnKnow_Geometry_0-Mesh",
      "primitives": [
        {
          "attributes": {
            "POSITION": 0,
            "NORMAL": 1
          },
          "indices": 2,
          "material": 0,
          "mode": 4
        }
      ]
    },
    {
      "name": "Switch_#0=IfcEntities not in spatial structure_#51=IfcBuildingElementProxy group_#3=IfcUnKnow_#4=IfcUnKnow_Geometry_0-Mesh",
      "primitives": [
        {
          "attributes": {
            "POSITION": 3,
            "NORMAL": 4
          },
          "indices": 5,
          "material": 0,
          "mode": 4
        }
      ]
    }
  ],
  "nodes": [
    {
      "name": "Switch_#0=IfcEntities not in spatial structure_#50=IfcBuildingElementProxy group_#1=IfcUnKnow_#2=IfcUnKnow_Geometry_0",
      "mesh": 0
    },
    {
      "name": "Switch_#0=IfcEntities not in spatial structure_#51=IfcBuildingElementProxy group_#3=IfcUnKnow_#4=IfcUnKnow_Geometry_0",
      "mesh": 1
    }
  ],
  "scene": 0,
  "scenes": [
    {
      "nodes": [
        0,
        1
      ]
    }
  ]
}
