{
  "accessors": [
    {
      "name": "??003_1_positions",
      "componentType": 5126,
      "count": 58748,
      "min": [
        5.384099960327148,
        -3.045799970626831,
        -4.636000156402588
      ],
      "max": [
        5.868100166320801,
        3.045799970626831,
        1.4556000232696533
      ],
      "type": "VEC3",
      "bufferView": 0,
      "byteOffset": 0
    },
    {
      "name": "??003_1_normals",
      "componentType": 5126,
      "count": 58748,
      "min": [
        -0.9965999722480774,
        -1.000499963760376,
        -1.0026999711990356
      ],
      "max": [
        0.9965999722480774,
        1.000499963760376,
        1.0026999711990356
      ],
      "type": "VEC3",
      "bufferView": 0,
      "byteOffset": 817704
    },
    {
      "name": "??003_1_texcoords",
      "componentType": 5126,
      "count": 58748,
      "min": [
        -5.154699802398682,
        -5.452199935913086
      ],
      "max": [
        6.823999881744385,
        6.154699802398682
      ],
      "type": "VEC2",
      "bufferView": 1,
      "byteOffset": 0
    },
    {
      "name": "??003_1_0_indices",
      "componentType": 5123,
      "count": 273312,
      "min": [
        0
      ],
      "max": [
        58747
      ],
      "type": "SCALAR",
      "bufferView": 2,
      "byteOffset": 0
    },
    {
      "name": "??_1_positions",
      "componentType": 5126,
      "count": 9394,
      "min": [
        3.6249001026153564,
        -3.0715999603271484,
        -4.664000034332275
      ],
      "max": [
        5.7657999992370605,
        3.0757999420166016,
        1.4833999872207642
      ],
      "type": "VEC3",
      "bufferView": 0,
      "byteOffset": 704976
    },
    {
      "name": "??_1_normals",
      "componentType": 5126,
      "count": 9394,
      "min": [
        -1,
        -1,
        -1
      ],
      "max": [
        1,
        1,
        1
      ],
      "type": "VEC3",
      "bufferView": 0,
      "byteOffset": 1522680
    },
    {
      "name": "??_1_texcoords",
      "componentType": 5126,
      "count": 9394,
      "min": [
        -2.057499885559082,
        -10.892999649047852
      ],
      "max": [
        12.844400405883789,
        3.057499885559082
      ],
      "type": "VEC2",
      "bufferView": 1,
      "byteOffset": 469984
    },
    {
      "name": "??_1_0_indices",
      "componentType": 5123,
      "count": 25359,
      "min": [
        0
      ],
      "max": [
        9393
      ],
      "type": "SCALAR",
      "bufferView": 2,
      "byteOffset": 546624
    }
  ],
  "asset": {
    "generator": "obj2gltf",
    "version": "2.0"
  },
  "buffers": [
    {
      "name": "tou",
      "byteLength": 2777888,
      "uri": "data:application/octet-stream;base64,"
    }
  ],
  "bufferViews": [
    {
      "name": "bufferView_0",
      "buffer": 0,
      "byteLength": 1635408,
      "byteOffset": 0,
      "byteStride": 12,
      "target": 34962
    },
    {
      "name": "bufferView_1",
      "buffer": 0,
      "byteLength": 545136,
      "byteOffset": 1635408,
      "byteStride": 8,
      "target": 34962
    },
    {
      "name": "bufferView_2",
      "buffer": 0,
      "byteLength": 597344,
      "byteOffset": 2180544,
      "target": 34963
    }
  ],
  "materials": [
    {
      "name": "wire_000000000",
      "pbrMetallicRoughness": {
        "baseColorFactor": [
          0,
          0,
          0,
          1
        ],
        "metallicFactor": 0,
        "roughnessFactor": 0.968
      },
      "emissiveFactor": [
        0,
        0,
        0
      ],
      "alphaMode": "OPAQUE",
      "doubleSided": false
    },
    {
      "name": "wire_176026026",
      "pbrMetallicRoughness": {
        "baseColorFactor": [
          0.6902,
          0.102,
          0.102,
          1
        ],
        "metallicFactor": 0,
        "roughnessFactor": 0.968
      },
      "emissiveFactor": [
        0,
        0,
        0
      ],
      "alphaMode": "OPAQUE",
      "doubleSided": false
    }
  ],
  "meshes": [
    {
      "name": "??003_1",
      "primitives": [
        {
          "attributes": {
            "POSITION": 0,
            "NORMAL": 1,
            "TEXCOORD_0": 2
          },
          "indices": 3,
          "material": 0,
          "mode": 4
        }
      ]
    },
    {
      "name": "??_1",
      "primitives": [
        {
          "attributes": {
            "POSITION": 4,
            "NORMAL": 5,
            "TEXCOORD_0": 6
          },
          "indices": 7,
          "material": 1,
          "mode": 4
        }
      ]
    }
  ],
  "nodes": [
    {
      "name": "??003",
      "mesh": 0
    },
    {
      "name": "??",
      "mesh": 1
    }
  ],
  "scene": 0,
  "scenes": [
    {
      "nodes": [
        0,
        1
      ]
    }
  ]
}
